<svg xmlns="http://www.w3.org/2000/svg" width="32" height="32" viewBox="0 0 32 32" fill="none">
  <rect width="32" height="32" rx="5.76" fill="#000"/>
  <path d="M17.4824 30.4414C16.9947 30.4909 16.4998 30.5166 15.999 30.5166C15.4982 30.5166 15.0034 30.4909 14.5156 30.4414V24.6885H17.4824V30.4414ZM10.7002 29.5186C9.64511 29.1047 8.65126 28.5696 7.7334 27.9326V24.6885H10.7002V29.5186ZM24.2637 27.9336C23.3459 28.5704 22.3518 29.1048 21.2969 29.5186V24.6885H24.2637V27.9336ZM14.0908 24.2646H11.124V21.2979H14.0908V24.2646ZM20.873 24.2646H17.9062V21.2979H20.873V24.2646ZM29.5186 21.2979C29.1048 22.3528 28.5703 23.3469 27.9336 24.2646H24.6875V21.2979H29.5186ZM7.31055 24.2646H4.06445C3.4277 23.3469 2.8932 22.3528 2.47949 21.2979H7.31055V24.2646ZM10.7002 20.874H7.7334V17.9072H10.7002V20.874ZM14.0908 20.874H11.124V17.9072H14.0908V20.874ZM17.4824 20.874H14.5156V17.9072H17.4824V20.874ZM20.873 20.874H17.9062V17.9072H20.873V20.874ZM24.2637 20.874H21.2969V17.9072H24.2637V20.874ZM14.0908 17.4834H11.124V14.5166H14.0908V17.4834ZM17.4824 17.4834H14.5156V14.5166H17.4824V17.4834ZM20.873 17.4834H17.9062V14.5166H20.873V17.4834ZM30.4404 14.5166C30.4899 15.0043 30.5156 15.4992 30.5156 16C30.5156 16.5008 30.4899 16.9957 30.4404 17.4834H24.6875V14.5166H30.4404ZM7.31055 17.4834H1.55762C1.50811 16.9957 1.48242 16.5008 1.48242 16C1.48242 15.4992 1.50811 15.0043 1.55762 14.5166H7.31055V17.4834ZM10.7012 14.0928H7.7334V11.126H10.7012V14.0928ZM14.0908 14.0928H11.124V11.126H14.0908V14.0928ZM17.4824 14.0928H14.5156V11.126H17.4824V14.0928ZM20.873 14.0928H17.9062V11.126H20.873V14.0928ZM24.2637 14.0928H21.2969V11.126H24.2637V14.0928ZM14.0908 10.7021H11.124V7.73535H14.0908V10.7021ZM20.873 10.7021H17.9062V7.73535H20.873V10.7021ZM27.9336 7.73535C28.5703 8.65311 29.1049 9.64723 29.5186 10.7021H24.6875V7.73535H27.9336ZM7.31055 10.7021H2.47949C2.8932 9.64722 3.42771 8.65312 4.06445 7.73535H7.31055V10.7021ZM10.7002 7.31152H7.7334V4.06641C8.65123 3.42949 9.64516 2.8943 10.7002 2.48047V7.31152ZM15.999 1.4834C16.4998 1.4834 16.9947 1.50812 17.4824 1.55762V7.31152H14.5156V1.55762C15.0033 1.50812 15.4983 1.4834 15.999 1.4834ZM21.2969 2.48047C22.3518 2.89418 23.3459 3.42868 24.2637 4.06543V7.31152H21.2969V2.48047Z" fill="#fff"/>
</svg>
