<svg width="122" height="32" viewBox="0 0 122 32" fill="none" xmlns="http://www.w3.org/2000/svg">
<rect width="32" height="32" rx="5.76" fill="black"/>
<path d="M17.4824 30.4414C16.9947 30.4909 16.4998 30.5166 15.999 30.5166C15.4982 30.5166 15.0034 30.4909 14.5156 30.4414V24.6885H17.4824V30.4414ZM10.7002 29.5186C9.64511 29.1047 8.65126 28.5696 7.7334 27.9326V24.6885H10.7002V29.5186ZM24.2637 27.9336C23.3459 28.5704 22.3518 29.1048 21.2969 29.5186V24.6885H24.2637V27.9336ZM14.0908 24.2646H11.124V21.2979H14.0908V24.2646ZM20.873 24.2646H17.9062V21.2979H20.873V24.2646ZM29.5186 21.2979C29.1048 22.3528 28.5703 23.3469 27.9336 24.2646H24.6875V21.2979H29.5186ZM7.31055 24.2646H4.06445C3.4277 23.3469 2.8932 22.3528 2.47949 21.2979H7.31055V24.2646ZM10.7002 20.874H7.7334V17.9072H10.7002V20.874ZM14.0908 20.874H11.124V17.9072H14.0908V20.874ZM17.4824 20.874H14.5156V17.9072H17.4824V20.874ZM20.873 20.874H17.9062V17.9072H20.873V20.874ZM24.2637 20.874H21.2969V17.9072H24.2637V20.874ZM14.0908 17.4834H11.124V14.5166H14.0908V17.4834ZM17.4824 17.4834H14.5156V14.5166H17.4824V17.4834ZM20.873 17.4834H17.9062V14.5166H20.873V17.4834ZM30.4404 14.5166C30.4899 15.0043 30.5156 15.4992 30.5156 16C30.5156 16.5008 30.4899 16.9957 30.4404 17.4834H24.6875V14.5166H30.4404ZM7.31055 17.4834H1.55762C1.50811 16.9957 1.48242 16.5008 1.48242 16C1.48242 15.4992 1.50811 15.0043 1.55762 14.5166H7.31055V17.4834ZM10.7012 14.0928H7.7334V11.126H10.7012V14.0928ZM14.0908 14.0928H11.124V11.126H14.0908V14.0928ZM17.4824 14.0928H14.5156V11.126H17.4824V14.0928ZM20.873 14.0928H17.9062V11.126H20.873V14.0928ZM24.2637 14.0928H21.2969V11.126H24.2637V14.0928ZM14.0908 10.7021H11.124V7.73535H14.0908V10.7021ZM20.873 10.7021H17.9062V7.73535H20.873V10.7021ZM27.9336 7.73535C28.5703 8.65311 29.1049 9.64723 29.5186 10.7021H24.6875V7.73535H27.9336ZM7.31055 10.7021H2.47949C2.8932 9.64722 3.42771 8.65312 4.06445 7.73535H7.31055V10.7021ZM10.7002 7.31152H7.7334V4.06641C8.65123 3.42949 9.64516 2.8943 10.7002 2.48047V7.31152ZM15.999 1.4834C16.4998 1.4834 16.9947 1.50812 17.4824 1.55762V7.31152H14.5156V1.55762C15.0033 1.50812 15.4983 1.4834 15.999 1.4834ZM21.2969 2.48047C22.3518 2.89418 23.3459 3.42868 24.2637 4.06543V7.31152H21.2969V2.48047Z" fill="white"/>
<path d="M104.163 20.0361V5.0839H101.42V3.56531H104.163V2H107.439V3.56531H110.183V5.0839H107.439V20.0361H104.163ZM114.953 7.20992C114.912 7.2878 114.898 7.36567 114.912 7.44355C114.926 7.50585 114.96 7.52921 115.014 7.51364L118.556 7.18656L121.525 5.24744V7.39683L110.838 14.3823V12.2329L116.304 8.65842L112.066 9.10232C111.807 9.13347 111.575 9.09453 111.37 8.9855C111.179 8.8609 111.029 8.70515 110.92 8.51824C110.824 8.31577 110.769 8.09771 110.756 7.86408C110.756 7.61488 110.817 7.37346 110.94 7.13983L112.373 4.28956H110.653V2.77097H114.421V2.04673H117.901V2.77097H121.689V4.28956H116.345L114.953 7.20992ZM110.838 18.0503L121.525 10.3405V12.4198L119.56 13.845L121.648 19.9427H117.799L116.427 16.0878L110.838 20.1062V18.0503ZM108.238 20.0361L107.869 6.06514H109.855L110.224 20.0361H108.238ZM101.379 20.0361L101.768 6.06514H103.754L103.365 20.0361H101.379Z" fill="black"/>
<path d="M100.684 17.9568C100.684 18.533 100.5 19.0237 100.131 19.4286C99.7762 19.8336 99.3463 20.0361 98.8412 20.0361H93.1086V18.5408H96.5891C96.7666 18.5408 96.9099 18.4707 97.0191 18.3306C97.1419 18.1904 97.2033 18.0268 97.2033 17.8399V7.93408H86.8437L84.7349 20.0361H81.193L83.8955 4.47637H80.9473V2.95778H89.321V2.04663H92.8015V2.95778H101.175V4.47637H87.4374L87.1098 6.43885H100.684V17.9568Z" fill="black"/>
<path d="M61.9682 5.10732L61.1493 2.16359H64.6298L65.4488 5.10732H61.9682ZM60.4941 20.0362L62.0092 9.63972H65.4692L63.9747 20.0362H60.4941ZM61.9887 8.75193L61.1698 5.8082H64.6503L65.4692 8.75193H61.9887ZM70.8129 5.55121C70.8129 6.14307 70.6354 6.64148 70.2805 7.04644C69.9257 7.45139 69.4889 7.65387 68.9702 7.65387H66.4315V6.13528H66.9229C67.0321 6.13528 67.1276 6.08856 67.2095 5.99511C67.2914 5.90166 67.3323 5.79263 67.3323 5.66803V2.09351H79.7394V5.66803C79.7394 5.79263 79.7803 5.90166 79.8622 5.99511C79.9441 6.08856 80.0397 6.13528 80.1489 6.13528H80.6607V7.65387H78.122C77.6033 7.65387 77.1665 7.45139 76.8116 7.04644C76.4568 6.64148 76.2793 6.14307 76.2793 5.55121V3.58873H70.8129V5.55121ZM66.9843 8.63511H80.1079V17.9569C80.1079 18.5488 79.9236 19.0472 79.5551 19.4521C79.2002 19.8571 78.7703 20.0596 78.2653 20.0596H68.8269C68.3083 20.0596 67.8715 19.8571 67.5166 19.4521C67.1617 19.0472 66.9843 18.5488 66.9843 17.9569V8.63511ZM70.4648 10.1537V17.8401C70.4648 18.0426 70.5194 18.2061 70.6286 18.3307C70.7514 18.4709 70.9016 18.541 71.079 18.541H76.0132C76.1906 18.541 76.3339 18.4709 76.4431 18.3307C76.566 18.2061 76.6274 18.0426 76.6274 17.8401V10.1537H70.4648Z" fill="black"/>
<path d="M40.1843 20.0829V5.27086H50.6258V17.9803C50.6258 18.5565 50.4416 19.0472 50.073 19.4521C49.7182 19.8727 49.2882 20.0829 48.7832 20.0829H45.6098V18.5643H46.3878C46.6198 18.5643 46.8109 18.4709 46.961 18.284C47.1248 18.1127 47.2067 17.8946 47.2067 17.6298V14.2889H43.6034V20.0829H40.1843ZM60.1051 5.27086V17.9803C60.1051 18.5565 59.9277 19.0472 59.5728 19.4521C59.2179 19.8727 58.788 20.0829 58.283 20.0829H53.7583V18.5643H55.8057C56.0377 18.5643 56.2288 18.4709 56.3789 18.284C56.5427 18.1127 56.6246 17.8946 56.6246 17.6298V5.27086H60.1051ZM52.018 16.9289V5.90165H55.3552V16.9289H52.018ZM40 2.81775H41.9655L41.7812 2.09351H45.3436L45.5279 2.81775H54.7615L54.9458 2.09351H58.4468L58.2625 2.81775H60.228V4.33634H40V2.81775ZM43.6034 12.7703H47.2067V9.99016H43.6034V12.7703ZM47.2067 6.78945H43.6034V8.47157H47.2067V6.78945Z" fill="black"/>
<path d="M114.927 31.8001C114.79 31.8001 114.661 31.7735 114.54 31.7203C114.418 31.6671 114.312 31.5949 114.221 31.5037C114.137 31.4201 114.069 31.3176 114.015 31.196C113.962 31.082 113.936 30.9566 113.936 30.8198V24.197H121.128V24.9038H115.782V26.8644H121.026V27.5825H115.782V30.7514C115.782 30.8426 115.813 30.9224 115.873 30.9908C115.942 31.0592 116.025 31.0934 116.124 31.0934H121.128V31.8001H114.927Z" fill="black"/>
<path d="M112.011 24.197V27.0582C112.011 27.1949 111.984 27.3241 111.931 27.4457C111.878 27.5597 111.806 27.6623 111.715 27.7535C111.631 27.8447 111.529 27.9169 111.407 27.9701C111.293 28.0157 111.168 28.0385 111.031 28.0385H110.883L112.011 31.8001H110.073L109.002 28.0385H106.676V31.8001H104.818V24.197H112.011ZM109.822 27.3203C109.914 27.3203 109.993 27.2899 110.062 27.2291C110.13 27.1683 110.164 27.0886 110.164 26.9898V24.9038H106.676V27.3203H109.822Z" fill="black"/>
<path d="M96.5562 31.8001C96.4194 31.8001 96.2902 31.7735 96.1686 31.7203C96.047 31.6671 95.9406 31.5949 95.8494 31.5037C95.7658 31.4201 95.6974 31.3176 95.6442 31.196C95.5911 31.082 95.5645 30.9566 95.5645 30.8198V24.197H103.031V30.8198C103.031 30.9566 103.004 31.082 102.951 31.196C102.898 31.3176 102.826 31.4201 102.734 31.5037C102.651 31.5949 102.548 31.6671 102.427 31.7203C102.313 31.7735 102.187 31.8001 102.05 31.8001H96.5562ZM97.4111 30.7514C97.4111 30.8426 97.4415 30.9224 97.5023 30.9908C97.5707 31.0592 97.6543 31.0934 97.753 31.0934H100.854C100.945 31.0934 101.025 31.0592 101.093 30.9908C101.161 30.9224 101.196 30.8426 101.196 30.7514V24.9038H97.4111V30.7514Z" fill="black"/>
<path d="M93.7767 24.197V24.9038H88.7726C88.6738 24.9038 88.5902 24.938 88.5218 25.0063C88.461 25.0671 88.4306 25.1469 88.4306 25.2457V30.7514C88.4306 30.8426 88.461 30.9224 88.5218 30.9908C88.5902 31.0592 88.6738 31.0934 88.7726 31.0934H93.7767V31.8001H87.5757C87.4389 31.8001 87.3097 31.7735 87.1881 31.7203C87.0665 31.6671 86.9601 31.5949 86.869 31.5037C86.7854 31.4201 86.717 31.3176 86.6638 31.196C86.6106 31.082 86.584 30.9566 86.584 30.8198V25.1773C86.584 24.9038 86.679 24.672 86.869 24.482C87.0665 24.292 87.3021 24.197 87.5757 24.197H93.7767Z" fill="black"/>
<path d="M80.1341 31.8001V24.9038H77.4668V24.197H84.6595V24.9038H81.9808V31.8001H80.1341Z" fill="black"/>
<path d="M68.3516 24.197H74.564C74.7008 24.197 74.8262 24.2236 74.9401 24.2768C75.0617 24.3224 75.1643 24.3908 75.2479 24.482C75.3391 24.5732 75.4113 24.6796 75.4645 24.8012C75.5177 24.9152 75.5443 25.0405 75.5443 25.1773V31.8001H73.6977V25.2457C73.6977 25.1469 73.6635 25.0671 73.5951 25.0063C73.5267 24.938 73.4469 24.9038 73.3557 24.9038H70.2096V31.8001H68.3516V24.197Z" fill="black"/>
<path d="M60.0894 31.8001C59.9526 31.8001 59.8234 31.7735 59.7018 31.7203C59.5802 31.6671 59.4738 31.5949 59.3826 31.5037C59.299 31.4201 59.2306 31.3176 59.1774 31.196C59.1243 31.082 59.0977 30.9566 59.0977 30.8198V24.197H66.564V30.8198C66.564 30.9566 66.5374 31.082 66.4842 31.196C66.431 31.3176 66.3588 31.4201 66.2676 31.5037C66.184 31.5949 66.0814 31.6671 65.9598 31.7203C65.8458 31.7735 65.7204 31.8001 65.5837 31.8001H60.0894ZM60.9443 30.7514C60.9443 30.8426 60.9747 30.9224 61.0355 30.9908C61.1039 31.0592 61.1875 31.0934 61.2863 31.0934H64.3868C64.478 31.0934 64.5577 31.0592 64.6261 30.9908C64.6945 30.9224 64.7287 30.8426 64.7287 30.7514V24.9038H60.9443V30.7514Z" fill="black"/>
<path d="M57.3099 24.197V27.0582C57.3099 27.1949 57.2833 27.3241 57.2301 27.4457C57.1769 27.5597 57.1047 27.6623 57.0135 27.7535C56.93 27.8447 56.8274 27.9169 56.7058 27.9701C56.5918 28.0157 56.4664 28.0385 56.3296 28.0385H56.1814L57.3099 31.8001H55.3721L54.3006 28.0385H51.9752V31.8001H50.1172V24.197H57.3099ZM55.1213 27.3203C55.2125 27.3203 55.2923 27.2899 55.3607 27.2291C55.4291 27.1683 55.4633 27.0886 55.4633 26.9898V24.9038H51.9752V27.3203H55.1213Z" fill="black"/>
<path d="M41 31.8001V24.197H48.1927V24.9038H42.8466V26.8644H48.0901V27.5825H42.8466V31.8001H41Z" fill="black"/>
</svg>
